<svg width="10" height="6" viewBox="0 0 10 6" fill="none" xmlns="http://www.w3.org/2000/svg">
<path d="M1.93751 0.816415C1.64468 0.564 1.20268 0.596757 0.950265 0.88958C0.69785 1.1824 0.730607 1.62441 1.02343 1.87682L1.93751 0.816415ZM5.12832 4.49108L4.67128 5.02128L5.12836 5.41529L5.5854 5.02124L5.12832 4.49108ZM9.2326 1.87678C9.5254 1.62434 9.55812 1.18234 9.30568 0.889534C9.05324 0.596733 8.61123 0.564014 8.31843 0.816455L9.2326 1.87678ZM1.02343 1.87682L4.67128 5.02128L5.58535 3.96088L1.93751 0.816415L1.02343 1.87682ZM5.5854 5.02124L9.2326 1.87678L8.31843 0.816455L4.67123 3.96092L5.5854 5.02124Z" fill="white"/>
</svg>
